# xmcd CD database file
#
# Track frame offsets:
#	150
#	16822
#	41626
#	59690
#	74843
#	92281
#	116698
#	132110
#	146865
#	171788
#	184116
#	202264
#	218907
#	239564
#
# Disc length: 3435 seconds
#
# Revision: 0
# Processed by: cddbd v1.5.1PL0 Copyright (c) Steve Scherf et al.
# Submitted via: CDex 1.51
#
DISCID=db0d690e
DTITLE=Stevie Cochran - The Blues Goes With Ya
DYEAR=2003
DGENRE=Blues
TTITLE0=Heckle And Jeckle
TTITLE1=Shame On You
TTITLE2=Headed For Trouble
TTITLE3=Ain't It Funny
TTITLE4=Fix It Man
TTITLE5=Between The Lines
TTITLE6=Leavin'
TTITLE7=Thinkin' Of You
TTITLE8=I'll Get Along
TTITLE9=Don't Need You No More
TTITLE10=Testify
TTITLE11=The Time Is Right
TTITLE12=Misunderstood
TTITLE13=You're Eatin' On Me
EXTD=YEAR: 2003
EXTT0=
EXTT1=
EXTT2=
EXTT3=
EXTT4=
EXTT5=
EXTT6=
EXTT7=
EXTT8=
EXTT9=
EXTT10=
EXTT11=
EXTT12=
EXTT13=
PLAYORDER=
